<svg width="514" height="274" viewBox="0 0 514 274" fill="none" xmlns="http://www.w3.org/2000/svg">
<path d="M50.3466 185.432V138.098H52.75C71.8437 138.098 78.6533 131.411 78.6533 112.267C78.6533 87.8793 65.8352 86.5681 51.4147 86.5681H41V185.432H50.3466ZM50.3466 94.9597H52.2159C65.3011 94.9597 69.0397 98.631 69.0397 112.267C68.6391 124.986 67.0369 129.706 53.9517 129.706H50.3466V94.9597Z" fill="url(#paint0_linear_97_321)"/>
<path d="M124.905 86.5681H115.559V185.432H146.803V177.04H124.905V86.5681Z" fill="url(#paint1_linear_97_321)"/>
<path d="M202.074 86.5681H193.261L173.5 185.432H183.514L187.119 165.108H208.483L212.222 185.432H222.236L202.074 86.5681ZM188.722 157.11L194.597 119.217C195.665 112.53 196.332 105.711 197.267 99.0244H197.801C198.602 105.711 199.136 112.53 200.338 119.217L207.014 157.11H188.722Z" fill="url(#paint2_linear_97_321)"/>
<path d="M289.562 86.5681H250.04V94.9597H265.128V185.432H274.474V94.9597H289.562V86.5681Z" fill="url(#paint3_linear_97_321)"/>
<path d="M325.686 86.5681H286.164V94.9597H301.252V185.432H310.598V94.9597H325.686V86.5681Z" fill="url(#paint4_linear_97_321)"/>
<path d="M392.921 86.5681H361.276V185.432H392.921V177.04H370.623V138.229H392.253V129.837H370.623V94.9597H392.921V86.5681Z" fill="url(#paint5_linear_97_321)"/>
<path d="M442.443 185.432V137.049H442.71L464.074 185.432H473.955L451.656 137.18C467.812 136.656 470.616 124.33 470.616 111.743C470.616 87.6171 457.131 86.5681 443.111 86.5681H433.097V185.432H442.443ZM442.443 94.9597H444.313C456.196 94.9597 461.003 96.5331 461.003 112.136C461.003 125.117 458.866 129.575 445.781 129.575H442.443V94.9597Z" fill="url(#paint6_linear_97_321)"/>
<defs>
<linearGradient id="paint0_linear_97_321" x1="468.729" y1="135.494" x2="155.273" y2="335.048" gradientUnits="userSpaceOnUse">
<stop stop-color="#F06D89"/>
<stop offset="0.213542" stop-color="#854BCF"/>
<stop offset="1" stop-color="#3FF7A9"/>
</linearGradient>
<linearGradient id="paint1_linear_97_321" x1="468.729" y1="135.494" x2="155.273" y2="335.048" gradientUnits="userSpaceOnUse">
<stop stop-color="#F06D89"/>
<stop offset="0.213542" stop-color="#854BCF"/>
<stop offset="1" stop-color="#3FF7A9"/>
</linearGradient>
<linearGradient id="paint2_linear_97_321" x1="468.729" y1="135.494" x2="155.273" y2="335.048" gradientUnits="userSpaceOnUse">
<stop stop-color="#F06D89"/>
<stop offset="0.213542" stop-color="#854BCF"/>
<stop offset="1" stop-color="#3FF7A9"/>
</linearGradient>
<linearGradient id="paint3_linear_97_321" x1="468.729" y1="135.494" x2="155.273" y2="335.048" gradientUnits="userSpaceOnUse">
<stop stop-color="#F06D89"/>
<stop offset="0.213542" stop-color="#854BCF"/>
<stop offset="1" stop-color="#3FF7A9"/>
</linearGradient>
<linearGradient id="paint4_linear_97_321" x1="468.729" y1="135.494" x2="155.273" y2="335.048" gradientUnits="userSpaceOnUse">
<stop stop-color="#F06D89"/>
<stop offset="0.213542" stop-color="#854BCF"/>
<stop offset="1" stop-color="#3FF7A9"/>
</linearGradient>
<linearGradient id="paint5_linear_97_321" x1="468.729" y1="135.494" x2="155.273" y2="335.048" gradientUnits="userSpaceOnUse">
<stop stop-color="#F06D89"/>
<stop offset="0.213542" stop-color="#854BCF"/>
<stop offset="1" stop-color="#3FF7A9"/>
</linearGradient>
<linearGradient id="paint6_linear_97_321" x1="468.729" y1="135.494" x2="155.273" y2="335.048" gradientUnits="userSpaceOnUse">
<stop stop-color="#F06D89"/>
<stop offset="0.213542" stop-color="#854BCF"/>
<stop offset="1" stop-color="#3FF7A9"/>
</linearGradient>
</defs>
</svg>
